<svg xmlns="http://www.w3.org/2000/svg" width="680" height="512" viewBox="0 0 680 512" role="img"><style>.th{font:500 14px sans-serif;fill:#2C2C2A}.ts{font:12px sans-serif;fill:#444441}.c-amber rect{fill:#FAC775;fill-opacity:.35;stroke:#BA7517}.c-coral rect{fill:#F0997B;fill-opacity:.5;stroke:#993C1D}</style><rect width="680" height="512" fill="#ffffff"/><title>Черновой план деревни у гор</title><desc>Вид сверху на деревню 128 на 96 метров: горы закрывают её с севера, в горе рудник с дорогой-серпантином и отвалом, с гор падает водопад в омут, ручей течёт через деревню и уходит в лес, частокол дугой от гор до гор с воротами на юге, чертог на подъёме у подножия, кузница у омута, сгоревшие дома вдоль кривой улицы.</desc>
<rect x="52" y="40" width="576" height="432" rx="4" fill="#97C459" fill-opacity="0.18" stroke="#639922" stroke-width="1"/>
<path d="M52 40 L628 40 L628 300 C 600 280, 575 230, 560 190 S 520 135, 480 128 S 400 118, 360 126 S 290 120, 250 118 S 190 112, 150 122 S 90 118, 52 128 Z" fill="#888780" fill-opacity="0.55" stroke="#5F5E5A" stroke-width="1"/>
<path d="M52 82 C 150 60, 250 92, 340 72 S 520 92, 628 64" fill="none" stroke="#444441" stroke-opacity="0.5" stroke-width="1"/>
<path d="M430 104 C 490 86, 560 112, 628 170" fill="none" stroke="#444441" stroke-opacity="0.5" stroke-width="1"/>
<path d="M180 40 C 200 70, 215 90, 229 116" fill="none" stroke="#378ADD" stroke-width="5" stroke-linecap="round"/>
<rect x="223" y="114" width="12" height="22" rx="2" fill="#B5D4F4" stroke="#185FA5" stroke-width="1"/>
<ellipse cx="232" cy="144" rx="20" ry="11" fill="#378ADD" fill-opacity="0.6"/>
<path d="M52 128 C 95 160, 105 230, 110 290 S 180 390, 230 420 S 260 460, 270 472 L 52 472 Z" fill="#3B6D11" fill-opacity="0.3"/>
<path d="M628 300 C 590 320, 575 380, 590 430 S 610 460, 628 472 Z" fill="#3B6D11" fill-opacity="0.3"/>
<path d="M330 390 C 400 380, 480 385, 520 420 S 500 465, 450 472 L 300 472 C 300 440, 310 410, 330 390 Z" fill="#FAC775" fill-opacity="0.25"/>
<path d="M232 152 C 240 175, 222 190, 218 210 S 200 260, 196 300 S 180 380, 170 410 S 158 450, 160 472" fill="none" stroke="#378ADD" stroke-width="9" stroke-linecap="round"/>
<ellipse cx="362" cy="172" rx="46" ry="22" fill="#B4B2A9" fill-opacity="0.35" stroke="#5F5E5A" stroke-opacity="0.6" stroke-width="0.8"/>
<path d="M150 125 C 120 200, 150 330, 280 362" fill="none" stroke="#633806" stroke-width="4" stroke-dasharray="3 2"/>
<path d="M316 362 C 420 360, 500 330, 530 280 S 555 190, 540 165" fill="none" stroke="#633806" stroke-width="4" stroke-dasharray="3 2"/>
<rect x="275" y="357" width="10" height="10" fill="#633806"/>
<rect x="311" y="357" width="10" height="10" fill="#633806"/>
<g class="c-amber"><rect x="332" y="326" width="36" height="28" rx="2" stroke-dasharray="3 2" transform="rotate(-10 350 340)"/><rect x="387" y="311" width="36" height="28" rx="2" stroke-dasharray="3 2" transform="rotate(8 405 325)"/><rect x="244" y="286" width="36" height="28" rx="2" stroke-dasharray="3 2" transform="rotate(-25 262 300)"/><rect x="282" y="226" width="36" height="28" rx="2" stroke-dasharray="3 2" transform="rotate(-15 300 240)"/><rect x="370" y="243" width="50" height="38" rx="2" stroke-dasharray="3 2" transform="rotate(12 395 262)"/><rect x="437" y="281" width="50" height="38" rx="2" stroke-dasharray="3 2" transform="rotate(-18 462 300)"/><rect x="430" y="199" width="64" height="46" rx="2" stroke-dasharray="3 2" transform="rotate(18 462 222)"/></g>
<g class="c-amber"><rect x="342" y="162" width="40" height="20" rx="2" stroke-width="1.5" transform="rotate(-5 362 172)"/></g>
<g class="c-coral"><rect x="246" y="186" width="36" height="20" rx="2" transform="rotate(10 264 196)"/></g>
<ellipse cx="545" cy="152" rx="11" ry="6" fill="#444441" fill-opacity="0.6"/>
<path d="M498 136 A 10 9 0 0 1 518 136 Z" fill="#2C2C2A" fill-opacity="0.85"/>
<path d="M250 472 C 262 430, 280 395, 298 362 C 305 320, 350 300, 345 260 S 350 215, 360 192" fill="none" stroke="#BA7517" stroke-width="3" stroke-dasharray="7 5" stroke-linecap="round"/>
<path d="M347 232 C 330 214, 310 204, 284 198" fill="none" stroke="#BA7517" stroke-width="2" stroke-dasharray="4 4" stroke-linecap="round"/>
<path d="M362 190 C 400 186, 470 190, 505 215 L 525 190 L 500 168 L 520 146 L 508 136" fill="none" stroke="#BA7517" stroke-width="2" stroke-dasharray="4 4" stroke-linecap="round" stroke-linejoin="round"/>
<circle cx="286" cy="344" r="5" fill="#E24B4A"/>
<circle cx="318" cy="386" r="5" fill="#E24B4A"/>
<circle cx="292" cy="212" r="5" fill="#E24B4A"/>
<circle cx="360" cy="290" r="5" fill="#E24B4A"/>
<circle cx="430" cy="270" r="5" fill="#E24B4A"/>
<circle cx="488" cy="160" r="5" fill="#E24B4A"/>
<circle cx="330" cy="166" r="7" fill="#E24B4A"/>
<text class="th" x="340" y="70" text-anchor="middle">горы</text>
<text class="ts" x="340" y="86" text-anchor="middle">закрывают деревню с севера</text>
<text class="th" x="522" y="122" text-anchor="start">рудник</text>
<text class="ts" x="560" y="156" text-anchor="start">отвал</text>
<text class="ts" x="216" y="118" text-anchor="end">водопад</text>
<text class="ts" x="258" y="140" text-anchor="start">омут</text>
<text class="th" x="264" y="181" text-anchor="middle">кузница</text>
<text class="th" x="416" y="172" text-anchor="start">чертог</text>
<text class="ts" x="318" y="160" text-anchor="end">главный дух</text>
<text class="ts" x="126" y="262" text-anchor="end">частокол</text>
<text class="ts" x="336" y="378" text-anchor="start">ворота</text>
<text class="ts" x="150" y="392" text-anchor="end">ручей</text>
<text class="th" x="95" y="332" text-anchor="middle">лес</text>
<text class="ts" x="420" y="432" text-anchor="middle">поля</text>
<circle cx="60" cy="494" r="5" fill="#E24B4A"/>
<text class="ts" x="72" y="498">злые духи</text>
<line x1="150" y1="494" x2="180" y2="494" stroke="#BA7517" stroke-width="3" stroke-dasharray="7 5"/>
<text class="ts" x="188" y="498">путь героя</text>
<rect x="286" y="486" width="18" height="15" rx="2" fill="#FAC775" stroke="#BA7517" stroke-dasharray="3 2"/>
<text class="ts" x="312" y="498">сгоревший дом — участок</text>
<text class="ts" x="628" y="498" text-anchor="end">128 × 96 м, камера снизу</text>
</svg>
